<?xml version="1.0" standalone="no"?>
<!DOCTYPE svg PUBLIC "-//W3C//DTD SVG 20010904//EN"
 "http://www.w3.org/TR/2001/REC-SVG-20010904/DTD/svg10.dtd">
<svg version="1.0" xmlns="http://www.w3.org/2000/svg"
 width="192.000000pt" height="192.000000pt" viewBox="0 0 192.000000 192.000000"
 preserveAspectRatio="xMidYMid meet">

<g transform="translate(0.000000,192.000000) scale(0.100000,-0.100000)"
fill="#000000" stroke="none">
<path d="M792 1600 c-179 -47 -342 -179 -420 -340 -23 -47 -49 -112 -57 -145
-19 -76 -19 -234 0 -310 60 -235 249 -426 481 -485 228 -59 460 6 630 175 131
130 194 281 194 465 0 116 -17 188 -72 300 -53 110 -167 228 -275 283 -146 76
-327 97 -481 57z m363 -45 c44 -14 105 -42 135 -60 150 -91 282 -291 284 -429
l1 -41 -114 0 -114 0 -12 46 c-24 99 -108 194 -215 247 -49 24 -66 27 -160 27
-94 0 -111 -3 -160 -27 -107 -53 -191 -148 -215 -247 l-12 -46 -114 0 -114 0
1 41 c2 134 126 326 271 420 159 103 360 129 538 69z m-50 -269 c103 -47 177
-137 206 -251 10 -39 9 -49 -2 -56 -12 -7 -12 -9 0 -9 21 0 7 -88 -25 -160
-32 -73 -102 -141 -182 -178 -48 -23 -71 -27 -142 -27 -71 0 -94 4 -142 27
-71 33 -143 99 -173 158 -41 81 -41 85 6 127 23 21 59 62 81 91 21 28 43 52
48 52 6 0 29 -17 52 -37 24 -21 35 -28 25 -17 -9 11 -14 24 -10 27 3 4 2 7 -4
7 -5 0 -21 11 -35 24 l-26 23 -28 -35 c-56 -67 -137 -152 -147 -152 -6 0 -8
29 -5 73 10 162 121 298 275 337 61 15 167 4 228 -24z m-643 -342 c-8 -14 -10
-14 -21 0 -11 13 -11 19 0 32 11 14 13 14 21 0 5 -9 5 -23 0 -32z m1020 0 c-8
-14 -10 -14 -21 0 -11 13 -11 19 0 32 11 14 13 14 21 0 5 -9 5 -23 0 -32z
m-900 -87 c20 -96 102 -196 204 -248 65 -32 73 -34 174 -34 101 0 109 2 174
34 102 52 184 152 204 248 l8 38 112 3 c131 3 132 2 113 -86 -20 -92 -78 -199
-149 -274 -81 -86 -155 -134 -262 -172 -75 -26 -98 -30 -200 -30 -102 0 -125
4 -200 30 -107 38 -181 86 -262 172 -71 75 -129 182 -149 274 -19 88 -18 89
113 86 l112 -3 8 -38z"/>
<path d="M995 1100 c3 -5 8 -10 11 -10 2 0 4 5 4 10 0 6 -5 10 -11 10 -5 0 -7
-4 -4 -10z"/>
<path d="M1187 1088 c4 -7 7 -22 5 -33 -2 -19 -1 -19 6 -1 6 14 11 16 16 8 4
-7 13 -12 19 -12 7 0 -1 11 -17 25 -32 28 -41 31 -29 13z"/>
<path d="M1090 1043 c0 -10 -7 -30 -15 -46 -8 -15 -17 -54 -21 -87 -7 -62 -26
-81 -38 -37 -3 12 -17 36 -32 53 l-27 31 -33 -36 c-19 -19 -34 -39 -34 -43 0
-4 -12 -8 -28 -8 -16 0 -32 -8 -40 -20 -10 -16 -23 -20 -66 -20 -30 0 -57 -4
-60 -9 -10 -15 128 0 140 15 6 8 23 14 36 14 18 0 29 8 37 28 6 15 20 33 30
39 25 16 59 -8 63 -45 2 -21 8 -27 28 -27 23 0 26 5 35 65 6 36 14 71 18 78
12 18 27 5 27 -26 0 -15 5 -34 10 -42 13 -21 6 46 -9 83 -19 49 -12 60 25 32
10 -8 24 -14 29 -14 6 -1 -1 8 -15 19 -31 25 -60 26 -60 3z"/>
<path d="M980 1040 c0 -5 7 -7 15 -4 8 4 15 8 15 10 0 2 -7 4 -15 4 -8 0 -15
-4 -15 -10z"/>
<path d="M888 1023 c7 -3 16 -2 19 1 4 3 -2 6 -13 5 -11 0 -14 -3 -6 -6z"/>
<path d="M1270 991 c0 -25 6 -27 13 -6 4 8 2 17 -3 20 -6 4 -10 -3 -10 -14z"/>
<path d="M1220 990 c8 -5 22 -9 30 -9 10 0 8 3 -5 9 -27 12 -43 12 -25 0z"/>
<path d="M1105 890 c-4 -6 -11 -8 -16 -5 -5 4 -9 1 -9 -4 0 -14 13 -14 28 1
13 13 19 2 24 -42 3 -21 9 -25 38 -26 27 -2 29 -1 7 3 -29 5 -31 7 -41 56 -7
28 -20 35 -31 17z"/>
<path d="M797 704 c-14 -14 -7 -35 11 -32 9 2 17 10 17 17 0 16 -18 25 -28 15z
m23 -14 c0 -5 -4 -10 -10 -10 -5 0 -10 5 -10 10 0 6 5 10 10 10 6 0 10 -4 10
-10z"/>
<path d="M840 690 c0 -11 4 -20 9 -20 6 0 9 9 8 20 -1 11 -5 20 -9 20 -4 0 -8
-9 -8 -20z"/>
<path d="M873 690 c1 -15 8 -20 29 -20 30 0 46 16 30 32 -8 8 -16 7 -27 -2
-10 -8 -15 -9 -15 -1 0 6 -4 11 -9 11 -6 0 -9 -9 -8 -20z m57 0 c0 -5 -4 -10
-10 -10 -5 0 -10 5 -10 10 0 6 5 10 10 10 6 0 10 -4 10 -10z"/>
<path d="M950 690 c0 -11 4 -20 9 -20 6 0 9 9 8 20 -1 11 -5 20 -9 20 -4 0 -8
-9 -8 -20z"/>
<path d="M1003 690 c-1 -11 2 -20 5 -20 4 0 8 9 9 20 1 11 -2 20 -5 20 -4 0
-8 -9 -9 -20z"/>
<path d="M1030 690 c0 -12 9 -17 30 -17 21 0 30 5 30 17 0 12 -9 17 -30 17
-21 0 -30 -5 -30 -17z"/>
<path d="M1100 700 c0 -5 6 -10 13 -10 8 0 7 -4 -3 -10 -13 -8 -12 -10 3 -10
19 0 20 1 11 24 -7 18 -24 22 -24 6z"/>
<path d="M443 760 c-36 -21 -36 -21 -27 -44 8 -22 24 -20 24 2 0 11 11 24 25
30 14 6 25 16 25 22 0 15 -11 12 -47 -10z"/>
<path d="M1380 748 c0 -8 13 -29 30 -48 l29 -35 1 27 c0 15 8 31 17 37 23 13
17 17 -34 26 -33 5 -43 4 -43 -7z m45 -18 c3 -5 1 -10 -4 -10 -6 0 -11 5 -11
10 0 6 2 10 4 10 3 0 8 -4 11 -10z"/>
<path d="M483 697 c-49 -11 -53 -18 -20 -32 13 -6 21 -17 19 -28 -2 -9 1 -17
7 -17 15 0 55 70 45 79 -5 4 -28 3 -51 -2z m27 -21 c0 -3 -4 -8 -10 -11 -5 -3
-10 -1 -10 4 0 6 5 11 10 11 6 0 10 -2 10 -4z"/>
<path d="M1340 690 c0 -6 7 -13 15 -16 26 -10 16 -21 -14 -16 -41 6 -45 -10
-11 -43 33 -32 54 -27 24 6 l-19 21 38 -7 c30 -6 37 -4 37 8 0 9 -12 25 -26
36 -29 23 -44 27 -44 11z"/>
<path d="M578 609 c-26 -15 -23 -65 3 -80 17 -9 25 -8 37 5 13 13 14 18 3 28
-11 10 -14 10 -18 1 -7 -20 -23 -15 -23 7 0 23 29 27 48 8 9 -9 12 -8 12 5 0
9 -9 21 -19 27 -23 12 -22 12 -43 -1z"/>
<path d="M1250 604 c0 -18 24 -84 30 -84 4 0 10 9 13 20 3 12 14 20 26 20 32
0 25 14 -14 33 -37 18 -55 21 -55 11z"/>
<path d="M655 541 c-16 -32 -12 -56 11 -65 23 -9 41 3 54 35 17 40 5 48 -15
10 -8 -17 -19 -31 -24 -31 -17 0 -19 14 -6 41 18 33 18 39 5 39 -5 0 -16 -13
-25 -29z"/>
<path d="M1180 560 c-12 -8 -12 -13 3 -44 16 -35 45 -52 33 -20 -3 8 1 22 9
31 27 27 -10 55 -45 33z m30 -20 c0 -5 -5 -10 -11 -10 -5 0 -7 5 -4 10 3 6 8
10 11 10 2 0 4 -4 4 -10z"/>
<path d="M1134 518 c12 -38 12 -51 0 -55 -7 -2 -17 10 -22 27 -6 16 -16 30
-21 30 -14 0 -14 -4 3 -45 16 -37 31 -43 60 -22 17 12 17 18 7 50 -13 40 -38
53 -27 15z"/>
<path d="M759 503 c-44 -53 -46 -57 -21 -51 13 4 28 0 36 -8 22 -22 26 -17 26
31 0 49 -15 59 -41 28z"/>
<path d="M840 497 c0 -8 -3 -29 -6 -46 -6 -29 -5 -31 23 -31 69 0 73 64 6 84
-17 5 -23 3 -23 -7z m48 -35 c2 -7 -4 -15 -13 -18 -20 -8 -27 -1 -19 20 7 18
25 17 32 -2z"/>
<path d="M1027 504 c-2 -5 -2 -24 0 -42 6 -36 27 -52 46 -33 8 8 7 11 -6 11
-11 0 -17 8 -17 23 0 26 -15 53 -23 41z"/>
<path d="M940 460 c-7 -22 -10 -43 -5 -48 4 -4 10 -1 12 6 3 6 13 12 23 12 10
0 20 -6 23 -12 2 -7 7 -10 11 -7 10 10 -24 89 -38 89 -7 0 -19 -18 -26 -40z"/>
</g>
</svg>
